<?xml version="1.0" encoding="utf-8"?>
<!-- Generator: Adobe Illustrator 23.1.1, SVG Export Plug-In . SVG Version: 6.00 Build 0)  -->
<svg version="1.1" id="Layer_1" xmlns="http://www.w3.org/2000/svg" xmlns:xlink="http://www.w3.org/1999/xlink" x="0px" y="0px"
	 viewBox="0 0 612 612" style="enable-background:new 0 0 612 612;" xml:space="preserve">
<style type="text/css">
	.st0{fill:#214A84;}
	.st1{fill:#3A7BD8;}
	.st2{fill:#3F3F3F;}
	.st3{fill:#262626;}
	.st4{fill:#FFFFFF;}
	.st5{fill:url(#SVGID_1_);}
</style>
<g id="Shield_2_">
	<path id="XMLID_2_" class="st0" d="M76.12,76.38l2.72,244.74c-0.23,97.37,86.37,183.48,214.54,229.61
		c128.4-45.51,215.41-131.21,215.64-228.58l3.9-244.73L294.59,49.15L76.12,76.38z"/>
	<path id="XMLID_1_" class="st1" d="M294.19,49.22l-1.2,501.32c128.37-36.26,215.8-128.84,216.04-226.21l3.78-247.34L294.19,49.22z"
		/>
	<path class="st2" d="M543.11,45.68v275.84c0,115.86-100.17,220.67-248.26,275.84V542.2c1.24-0.48,2.48-0.95,3.71-1.45
		c112.93-36.06,189.38-124.45,189.38-217.1l0.5-42.22l2.48-195.64l-0.12-0.02v-0.38L340.86,65.32l-46.01-6.26V5.58L543.11,45.68z"/>
	<path class="st3" d="M294.85,59.06L98.79,85.78l2.98,235.74c0,93.8,77.92,176.55,193.09,220.67v55.17
		C146.79,542.2,46.59,437.38,46.59,321.52V45.68l248.26-40.1V59.06z"/>
</g>
<g>
	<g>
		<path class="st4" d="M188.24,123.6c2.09,0.38,51.7,7.94,62.34,63.77c-13.5,14.29-21.89,34.25-21.89,56.46c0,0.24,0,0.38,0,0.54
			h141.32c0-0.16,0.08-0.3,0.08-0.54c0-22.2-8.39-42.16-21.91-56.46c10.66-55.84,60.27-63.4,62.36-63.77
			c4.67-0.85,7.69-5.29,6.92-9.94c-0.93-4.65-5.29-7.77-9.94-6.92c-0.62,0.08-57.77,8.65-74.17,68.59
			c-10.08-6.12-21.65-9.62-34.01-9.62c-12.27,0-23.83,3.58-33.93,9.62c-16.38-59.93-73.53-68.51-74.15-68.59
			c-4.65-0.85-9.01,2.27-9.94,6.92C180.47,118.31,183.57,122.74,188.24,123.6z"/>
		<path class="st4" d="M370.25,244.6h-141.8v-0.78c0-21.48,7.76-41.55,21.87-56.53c-9.96-51.93-53.36-61.95-61.96-63.44l-0.16-0.03
			c-2.32-0.43-4.34-1.72-5.68-3.64c-1.34-1.93-1.85-4.26-1.43-6.57c0.98-4.86,5.46-7.98,10.22-7.11
			c0.13,0.02,14.59,2.09,31.24,11.88c14.92,8.77,34.48,25.7,43.01,56.58c10.49-6.21,22.16-9.49,33.79-9.49
			c11.83,0,23.53,3.28,33.87,9.49c8.55-30.88,28.1-47.81,43.03-56.58c16.65-9.78,31.11-11.86,31.25-11.88
			c4.74-0.87,9.23,2.25,10.2,7.11c0.81,4.86-2.31,9.34-7.11,10.22l-0.16,0.03c-8.61,1.48-52.01,11.51-61.98,63.44
			c14.12,14.97,21.89,35.04,21.89,56.53c0,0.16-0.03,0.28-0.05,0.38c-0.01,0.06-0.03,0.11-0.03,0.16V244.6z M228.93,244.12h140.87
			c0-0.01,0-0.02,0.01-0.03c0.02-0.08,0.04-0.16,0.04-0.27c0-21.41-7.76-41.4-21.84-56.29l-0.08-0.09l0.02-0.12
			c4.38-22.97,15.73-40.59,33.74-52.35c12.47-8.15,24.2-10.82,28.66-11.59l0.16-0.03c4.54-0.83,7.49-5.08,6.72-9.66
			c-0.92-4.59-5.17-7.55-9.66-6.72c-0.15,0.02-14.52,2.08-31.09,11.82c-14.9,8.75-34.43,25.68-42.89,56.6l-0.08,0.31l-0.27-0.16
			c-10.32-6.27-22.04-9.59-33.89-9.59c-11.64,0-23.33,3.32-33.81,9.59l-0.27,0.16l-0.08-0.3c-8.45-30.92-27.98-47.84-42.88-56.6
			c-16.57-9.74-30.93-11.8-31.07-11.82c-4.51-0.83-8.75,2.13-9.68,6.73c-0.4,2.18,0.08,4.39,1.35,6.21
			c1.27,1.82,3.18,3.04,5.38,3.45l0.16,0.03c4.46,0.77,16.18,3.44,28.65,11.59c18,11.76,29.34,29.38,33.72,52.35l0.02,0.12
			l-0.08,0.09c-14.07,14.9-21.82,34.89-21.82,56.29V244.12z"/>
	</g>
	<g>
		<path class="st4" d="M447.19,213.9c1.71-5.55-1.35-11.37-6.88-13.15c-5.55-1.64-11.37,1.42-13.08,6.97c0,0-8.28,41.2-10.99,50.1
			c-5.6,1.49-22.52,6.24-34.18,9.51c-0.42-1.91-0.78-3.77-1.2-5.6H217.92c-0.44,1.84-0.78,3.69-1.22,5.6
			c-11.71-3.27-28.63-8.02-34.16-9.51c-2.78-8.9-10.99-50.17-10.99-50.17c-1.71-5.48-7.6-8.6-13.15-6.89
			c-5.46,1.71-8.51,7.6-6.82,13.08l14.32,61.03l47.82,13.23c-0.35,4.47-0.64,8.95-0.64,13.5c0,5.62,0.36,11.08,0.86,16.48
			l-47.75,21.32l-10.34,84.35c-1,5.68,2.76,11.08,8.46,12.15c5.68,0.98,11.08-2.86,12.08-8.53c0,0,6.79-63.96,8.48-73.33
			c4.62-2.13,19.75-8.82,32.56-14.64c11.37,48.24,43.77,83.13,81.91,83.13c38.24,0,70.64-34.89,82.01-83.13
			c12.79,5.82,28,12.51,32.54,14.64c1.64,9.37,8.5,73.33,8.5,73.33c1,5.68,6.4,9.51,12.15,8.53c5.69-1.07,9.46-6.48,8.39-12.15
			l-10.41-84.35l-47.68-21.32c0.56-5.4,0.86-10.86,0.86-16.48c0-4.55-0.29-9.02-0.58-13.43l47.75-13.3L447.19,213.9z"/>
		<path class="st4" d="M166.08,436.28c-0.6,0-1.21-0.05-1.82-0.16c-5.79-1.09-9.67-6.67-8.65-12.43l10.35-84.47l47.72-21.31
			c-0.58-6.43-0.84-11.48-0.84-16.33c0-4.55,0.3-9.08,0.62-13.32l-47.77-13.21l-0.03-0.14l-14.32-61.03
			c-1.73-5.61,1.4-11.61,6.98-13.36c5.66-1.74,11.69,1.42,13.45,7.05c0.09,0.44,8.17,41.01,10.95,50.05
			c4.54,1.23,16.28,4.51,26.65,7.41l7.15,2c0.18-0.79,0.34-1.56,0.5-2.34c0.21-0.99,0.42-2.02,0.66-3.02l0.04-0.18h163.32l0.04,0.19
			c0.24,1.06,0.47,2.13,0.69,3.21c0.15,0.71,0.3,1.43,0.46,2.15c9.89-2.78,27.88-7.83,33.81-9.41c2.72-9.04,10.87-49.54,10.95-49.95
			c1.76-5.72,7.64-8.85,13.38-7.15c5.7,1.84,8.79,7.74,7.04,13.44l-14.35,61.09l-0.14,0.04l-47.56,13.25
			c0.28,4.28,0.57,8.7,0.57,13.25c0,5.53-0.27,10.87-0.84,16.33l47.64,21.3l0.02,0.13l10.41,84.35c0.53,2.79-0.07,5.62-1.7,7.97
			c-1.62,2.34-4.06,3.92-6.88,4.45c-5.84,1-11.41-2.92-12.43-8.72c-0.07-0.65-6.83-63.53-8.48-73.21
			c-2.26-1.05-6.85-3.11-12.63-5.69c-6.12-2.74-13.06-5.83-19.53-8.78c-5.68,23.91-16.37,44.47-30.92,59.49
			c-14.93,15.41-32.65,23.55-51.25,23.55c-18.55,0-36.25-8.14-51.17-23.55c-14.55-15.02-25.23-35.58-30.91-59.49
			c-6.97,3.17-14.66,6.6-20.84,9.37c-5.14,2.3-9.23,4.13-11.34,5.1c-1.71,9.67-8.39,72.55-8.46,73.19
			C175.7,432.59,171.17,436.28,166.08,436.28z M166.41,339.55l-10.32,84.22c-0.97,5.52,2.74,10.85,8.27,11.89
			c5.52,0.95,10.82-2.78,11.8-8.34c0.07-0.62,6.81-64.06,8.48-73.33l0.02-0.12l0.11-0.05c2.08-0.96,6.22-2.81,11.46-5.15
			c6.27-2.8,14.06-6.29,21.11-9.49l0.26-0.12l0.07,0.28c11.69,49.61,44.52,82.95,81.68,82.95c37.22,0,70.08-33.33,81.77-82.95
			l0.07-0.28l0.26,0.12c6.55,2.98,13.58,6.12,19.79,8.9c5.88,2.63,10.53,4.71,12.75,5.75l0.11,0.05l0.02,0.12
			c1.62,9.27,8.44,72.7,8.5,73.34c0.98,5.53,6.3,9.27,11.87,8.32c2.69-0.51,5.03-2.02,6.57-4.25c1.55-2.24,2.12-4.94,1.62-7.62
			l-10.4-84.23l-47.71-21.34l0.02-0.17c0.57-5.51,0.85-10.89,0.85-16.46c0-4.6-0.3-9.08-0.58-13.41l-0.01-0.19l0.19-0.05
			l47.62-13.26l14.29-60.84c1.68-5.45-1.27-11.1-6.72-12.85c-5.49-1.62-11.1,1.37-12.78,6.81c-0.08,0.39-8.31,41.29-10.99,50.1
			l-0.04,0.13l-0.13,0.03c-5.84,1.55-24.28,6.73-34.18,9.51l-0.24,0.07l-0.05-0.25c-0.18-0.81-0.34-1.61-0.51-2.4
			c-0.21-1.01-0.42-2.02-0.65-3.01H218.11c-0.22,0.93-0.41,1.86-0.62,2.83c-0.18,0.85-0.36,1.72-0.56,2.59l-0.06,0.24l-7.63-2.13
			c-10.47-2.93-22.33-6.25-26.77-7.45l-0.13-0.03l-0.04-0.13c-2.76-8.81-10.92-49.78-11-50.2c-1.67-5.36-7.44-8.38-12.85-6.71
			c-5.34,1.67-8.33,7.4-6.66,12.78l14.29,60.91l47.88,13.24l-0.02,0.2c-0.33,4.28-0.64,8.88-0.64,13.48c0,4.88,0.26,9.96,0.85,16.46
			l0.02,0.17l-0.16,0.07L166.41,339.55z"/>
	</g>
</g>
<linearGradient id="SVGID_1_" gradientUnits="userSpaceOnUse" x1="68.3027" y1="216.0819" x2="564.8723" y2="216.254" gradientTransform="matrix(0.7335 -0.6797 0.5661 0.6109 -41.9836 337.8706)">
	<stop  offset="0" style="stop-color:#262626"/>
	<stop  offset="1" style="stop-color:#3F3F3F"/>
</linearGradient>
<polygon class="st5" points="478.07,68.03 113.85,405.54 147.13,441.45 511.35,103.95 "/>
</svg>
